<svg xmlns="http://www.w3.org/2000/svg" viewBox="0 0 600 406" width="600" height="406" font-family="Inter,Helvetica Neue,Arial,sans-serif" role="img" aria-label="Theme 2, Molecules in motion. Machine-learned interatomic potentials in MD. Near-quantum forces you can afford to run.">
<title>Theme 2 — Molecules in motion</title>
<rect width="600" height="406" rx="10" fill="#1D2A4F"/>
<rect width="600" height="4" rx="2" fill="#00D3F6"/>
<clipPath id="a2"><rect x="1" y="112" width="598" height="176"/></clipPath>
<g clip-path="url(#a2)">
<path d="M55.6 207.1 L103.1 160.9 L134.5 178.9 L182.0 121.8 L201.3 132.0 L191.8 113.2 L217.0 136.7 L236.9 150.8 L283.4 155.2 L313.4 86.1 L311.0 140.5 L308.7 146.9 L343.4 131.0" fill="none" stroke="#9AA7CD" stroke-width="1.6" stroke-linecap="round" stroke-linejoin="round" opacity="0.09"/>
<line x1="311.0" y1="140.5" x2="318.0" y2="121.5" stroke="#9AA7CD" stroke-width="1.3" stroke-linecap="round" opacity="0.09"/>
<line x1="201.3" y1="132.0" x2="208.3" y2="113.0" stroke="#9AA7CD" stroke-width="1.3" stroke-linecap="round" opacity="0.09"/>
<line x1="283.4" y1="155.2" x2="290.4" y2="136.2" stroke="#9AA7CD" stroke-width="1.3" stroke-linecap="round" opacity="0.09"/>
<path d="M71.0 220.5 L103.0 197.2 L146.6 192.0 L173.7 160.8 L181.3 136.1 L170.2 117.6 L226.0 153.7 L242.6 152.7 L262.2 146.1 L284.5 168.1 L313.8 159.7 L303.5 137.2 L335.3 138.8" fill="none" stroke="#9AA7CD" stroke-width="1.6" stroke-linecap="round" stroke-linejoin="round" opacity="0.12"/>
<line x1="313.8" y1="159.7" x2="320.8" y2="140.7" stroke="#9AA7CD" stroke-width="1.3" stroke-linecap="round" opacity="0.12"/>
<line x1="181.3" y1="136.1" x2="188.3" y2="117.1" stroke="#9AA7CD" stroke-width="1.3" stroke-linecap="round" opacity="0.12"/>
<line x1="262.2" y1="146.1" x2="269.2" y2="127.1" stroke="#9AA7CD" stroke-width="1.3" stroke-linecap="round" opacity="0.12"/>
<path d="M76.4 229.5 L101.0 187.8 L130.0 182.2 L185.9 149.5 L190.9 149.4 L200.7 139.7 L227.6 163.8 L230.9 119.2 L263.2 120.9 L305.7 152.1 L308.2 158.2 L322.2 171.0 L339.6 170.0" fill="none" stroke="#9AA7CD" stroke-width="1.6" stroke-linecap="round" stroke-linejoin="round" opacity="0.15"/>
<line x1="308.2" y1="158.2" x2="315.2" y2="139.2" stroke="#9AA7CD" stroke-width="1.3" stroke-linecap="round" opacity="0.15"/>
<line x1="190.9" y1="149.4" x2="197.9" y2="130.4" stroke="#9AA7CD" stroke-width="1.3" stroke-linecap="round" opacity="0.15"/>
<line x1="263.2" y1="120.9" x2="270.2" y2="101.9" stroke="#9AA7CD" stroke-width="1.3" stroke-linecap="round" opacity="0.15"/>
<path d="M60.8 207.9 L102.7 213.9 L137.7 194.1 L176.6 160.8 L181.9 164.7 L212.1 141.3 L221.0 136.0 L239.2 133.6 L278.7 148.1 L297.2 158.8 L312.0 160.3 L344.4 166.9 L338.1 142.4" fill="none" stroke="#9AA7CD" stroke-width="1.6" stroke-linecap="round" stroke-linejoin="round" opacity="0.18"/>
<line x1="312.0" y1="160.3" x2="319.0" y2="141.3" stroke="#9AA7CD" stroke-width="1.3" stroke-linecap="round" opacity="0.18"/>
<line x1="181.9" y1="164.7" x2="188.9" y2="145.7" stroke="#9AA7CD" stroke-width="1.3" stroke-linecap="round" opacity="0.18"/>
<line x1="278.7" y1="148.1" x2="285.7" y2="129.1" stroke="#9AA7CD" stroke-width="1.3" stroke-linecap="round" opacity="0.18"/>
<path d="M63.9 223.4 L102.8 203.0 L144.7 183.3 L173.1 170.5 L184.6 145.7 L201.2 146.9 L218.3 138.6 L246.0 136.1 L276.5 141.2 L290.0 136.0 L315.1 138.3 L322.5 143.0 L338.5 145.1" fill="none" stroke="#9AA7CD" stroke-width="1.6" stroke-linecap="round" stroke-linejoin="round" opacity="0.20"/>
<line x1="315.1" y1="138.3" x2="322.1" y2="119.3" stroke="#9AA7CD" stroke-width="1.3" stroke-linecap="round" opacity="0.20"/>
<line x1="184.6" y1="145.7" x2="191.6" y2="126.7" stroke="#9AA7CD" stroke-width="1.3" stroke-linecap="round" opacity="0.20"/>
<line x1="276.5" y1="141.2" x2="283.5" y2="122.2" stroke="#9AA7CD" stroke-width="1.3" stroke-linecap="round" opacity="0.20"/>
<path d="M72.6 216.2 L100.3 201.6 L138.0 188.7 L166.9 151.7 L183.3 150.5 L202.3 144.1 L215.8 144.0 L246.0 145.0 L272.1 146.5 L302.4 141.4 L312.7 147.2 L321.7 148.7 L339.6 142.0" fill="none" stroke="#9AA7CD" stroke-width="1.6" stroke-linecap="round" stroke-linejoin="round" opacity="0.23"/>
<line x1="312.7" y1="147.2" x2="319.7" y2="128.2" stroke="#9AA7CD" stroke-width="1.3" stroke-linecap="round" opacity="0.23"/>
<line x1="183.3" y1="150.5" x2="190.3" y2="131.5" stroke="#9AA7CD" stroke-width="1.3" stroke-linecap="round" opacity="0.23"/>
<line x1="272.1" y1="146.5" x2="279.1" y2="127.5" stroke="#9AA7CD" stroke-width="1.3" stroke-linecap="round" opacity="0.23"/>
<path d="M66.0 218.0 L102.6 204.9 L137.9 187.2 L166.0 158.5 L182.6 146.0 L198.8 146.0 L218.6 146.0 L242.3 146.0 L272.5 146.0 L300.7 146.0 L315.3 146.0 L325.6 146.0 L340.6 146.0" fill="none" stroke="#00D3F6" stroke-width="3.0" stroke-linecap="round" stroke-linejoin="round" opacity="0.95"/>
<line x1="315.3" y1="146.0" x2="322.3" y2="127.0" stroke="#00D3F6" stroke-width="2.4" stroke-linecap="round" opacity="0.95"/>
<circle cx="322.3" cy="127.0" r="4.4" fill="#C79A4D"/>
<line x1="182.6" y1="146.0" x2="189.6" y2="127.0" stroke="#00D3F6" stroke-width="2.4" stroke-linecap="round" opacity="0.95"/>
<circle cx="189.6" cy="127.0" r="4.4" fill="#C79A4D"/>
<line x1="272.5" y1="146.0" x2="279.5" y2="127.0" stroke="#00D3F6" stroke-width="2.4" stroke-linecap="round" opacity="0.95"/>
<circle cx="279.5" cy="127.0" r="4.4" fill="#C79A4D"/>
<circle cx="66.0" cy="218.0" r="4.6" fill="#00D3F6"/>
<circle cx="102.6" cy="204.9" r="4.6" fill="#00D3F6"/>
<circle cx="137.9" cy="187.2" r="4.6" fill="#00D3F6"/>
<circle cx="166.0" cy="158.5" r="4.6" fill="#00D3F6"/>
<circle cx="182.6" cy="146.0" r="4.6" fill="#00D3F6"/>
<circle cx="198.8" cy="146.0" r="4.6" fill="#00D3F6"/>
<circle cx="218.6" cy="146.0" r="4.6" fill="#00D3F6"/>
<circle cx="242.3" cy="146.0" r="4.6" fill="#00D3F6"/>
<circle cx="272.5" cy="146.0" r="4.6" fill="#00D3F6"/>
<circle cx="300.7" cy="146.0" r="4.6" fill="#00D3F6"/>
<circle cx="315.3" cy="146.0" r="4.6" fill="#00D3F6"/>
<circle cx="325.6" cy="146.0" r="4.6" fill="#00D3F6"/>
<circle cx="340.6" cy="146.0" r="4.6" fill="#00D3F6"/>
</g>
<text x="34" y="52" fill="#00D3F6" font-size="12" font-weight="800" letter-spacing="1.8">THEME 2</text>
<text x="34" y="86" fill="#EEF1FB" font-size="26" font-weight="800" letter-spacing="-.4">Molecules in motion</text>
<text x="34" y="320" fill="#EEF1FB" font-size="15" opacity=".82">Machine-learned interatomic potentials in MD. Near-quantum</text>
<text x="34" y="342" fill="#EEF1FB" font-size="15" opacity=".82">forces you can afford to run.</text>
<line x1="34" y1="358" x2="566" y2="358" stroke="#9AA7CD" opacity=".18"/>
<text x="34" y="384" fill="#9AA7CD" font-size="12.5">MACE · UMA · eSEN · Orb-v3 · NequIP</text>
</svg>