<svg xmlns="http://www.w3.org/2000/svg" viewBox="0 0 1340 1040" width="1340" height="1040" font-family="Inter,Helvetica Neue,Arial,sans-serif" role="img" aria-label="Where CDK9 and its counter-targets sit in the CDK family">
<title>The protein space</title>
<rect width="1340" height="1040" fill="#141C36"/>
<text x="48" y="56" fill="#EEF1FB" font-size="28" font-weight="800" letter-spacing="-.5">The protein space</text>
<text x="48" y="84" fill="#9AA7CD" font-size="14.5">Sequence identity across the CDK family. Whole kinase region on the left, the 18 ATP-site positions on the right.</text>
<text x="48" y="150" fill="#9AA7CD" font-size="11.5" font-weight="700" letter-spacing="1.5">WHOLE KINASE REGION</text>
<text x="172" y="180" fill="#9AA7CD" font-size="10.5" font-weight="600" text-anchor="middle" transform="rotate(-50 172 180)">CDK1</text>
<text x="216" y="180" fill="#9AA7CD" font-size="10.5" font-weight="600" text-anchor="middle" transform="rotate(-50 216 180)">CDK2</text>
<text x="260" y="180" fill="#9AA7CD" font-size="10.5" font-weight="600" text-anchor="middle" transform="rotate(-50 260 180)">CDK4</text>
<text x="304" y="180" fill="#9AA7CD" font-size="10.5" font-weight="600" text-anchor="middle" transform="rotate(-50 304 180)">CDK6</text>
<text x="348" y="180" fill="#00D3F6" font-size="10.5" font-weight="800" text-anchor="middle" transform="rotate(-50 348 180)">CDK7</text>
<text x="392" y="180" fill="#9AA7CD" font-size="10.5" font-weight="600" text-anchor="middle" transform="rotate(-50 392 180)">CDK8</text>
<text x="436" y="180" fill="#00D3F6" font-size="10.5" font-weight="800" text-anchor="middle" transform="rotate(-50 436 180)">CDK9</text>
<text x="480" y="180" fill="#00D3F6" font-size="10.5" font-weight="800" text-anchor="middle" transform="rotate(-50 480 180)">CDK12</text>
<text x="524" y="180" fill="#00D3F6" font-size="10.5" font-weight="800" text-anchor="middle" transform="rotate(-50 524 180)">CDK13</text>
<text x="568" y="180" fill="#9AA7CD" font-size="10.5" font-weight="600" text-anchor="middle" transform="rotate(-50 568 180)">CDK19</text>
<text x="140" y="216" fill="#9AA7CD" font-size="10.5" font-weight="600" text-anchor="end">CDK1</text>
<rect x="150" y="190" width="42" height="42" rx="2" fill="#00D3F6" opacity="0.35"/>
<rect x="194" y="190" width="42" height="42" rx="2" fill="#0E7DA1" opacity="0.95"/>
<text x="215" y="215" fill="#062430" font-size="10.5" font-weight="800" text-anchor="middle">67</text>
<rect x="238" y="190" width="42" height="42" rx="2" fill="#18456A" opacity="0.95"/>
<rect x="282" y="190" width="42" height="42" rx="2" fill="#164E72" opacity="0.95"/>
<rect x="326" y="190" width="42" height="42" rx="2" fill="#18456A" opacity="0.95"/>
<rect x="370" y="190" width="42" height="42" rx="2" fill="#193E63" opacity="0.95"/>
<rect x="414" y="190" width="42" height="42" rx="2" fill="#184166" opacity="0.95"/>
<rect x="458" y="190" width="42" height="42" rx="2" fill="#194065" opacity="0.95"/>
<rect x="502" y="190" width="42" height="42" rx="2" fill="#193F64" opacity="0.95"/>
<rect x="546" y="190" width="42" height="42" rx="2" fill="#193F64" opacity="0.95"/>
<text x="140" y="260" fill="#9AA7CD" font-size="10.5" font-weight="600" text-anchor="end">CDK2</text>
<rect x="150" y="234" width="42" height="42" rx="2" fill="#0E7DA1" opacity="0.95"/>
<text x="171" y="259" fill="#062430" font-size="10.5" font-weight="800" text-anchor="middle">67</text>
<rect x="194" y="234" width="42" height="42" rx="2" fill="#00D3F6" opacity="0.35"/>
<rect x="238" y="234" width="42" height="42" rx="2" fill="#174C70" opacity="0.95"/>
<rect x="282" y="234" width="42" height="42" rx="2" fill="#155277" opacity="0.95"/>
<rect x="326" y="234" width="42" height="42" rx="2" fill="#184569" opacity="0.95"/>
<rect x="370" y="234" width="42" height="42" rx="2" fill="#184166" opacity="0.95"/>
<rect x="414" y="234" width="42" height="42" rx="2" fill="#193C61" opacity="0.95"/>
<rect x="458" y="234" width="42" height="42" rx="2" fill="#17486D" opacity="0.95"/>
<rect x="502" y="234" width="42" height="42" rx="2" fill="#184569" opacity="0.95"/>
<rect x="546" y="234" width="42" height="42" rx="2" fill="#18466B" opacity="0.95"/>
<text x="140" y="304" fill="#9AA7CD" font-size="10.5" font-weight="600" text-anchor="end">CDK4</text>
<rect x="150" y="278" width="42" height="42" rx="2" fill="#18456A" opacity="0.95"/>
<rect x="194" y="278" width="42" height="42" rx="2" fill="#174C70" opacity="0.95"/>
<rect x="238" y="278" width="42" height="42" rx="2" fill="#00D3F6" opacity="0.35"/>
<rect x="282" y="278" width="42" height="42" rx="2" fill="#0C8AAE" opacity="0.95"/>
<text x="303" y="303" fill="#062430" font-size="10.5" font-weight="800" text-anchor="middle">72</text>
<rect x="326" y="278" width="42" height="42" rx="2" fill="#1B355A" opacity="0.95"/>
<rect x="370" y="278" width="42" height="42" rx="2" fill="#194065" opacity="0.95"/>
<rect x="414" y="278" width="42" height="42" rx="2" fill="#1A375B" opacity="0.95"/>
<rect x="458" y="278" width="42" height="42" rx="2" fill="#1B355A" opacity="0.95"/>
<rect x="502" y="278" width="42" height="42" rx="2" fill="#1B3459" opacity="0.95"/>
<rect x="546" y="278" width="42" height="42" rx="2" fill="#184468" opacity="0.95"/>
<text x="140" y="348" fill="#9AA7CD" font-size="10.5" font-weight="600" text-anchor="end">CDK6</text>
<rect x="150" y="322" width="42" height="42" rx="2" fill="#164E72" opacity="0.95"/>
<rect x="194" y="322" width="42" height="42" rx="2" fill="#155277" opacity="0.95"/>
<rect x="238" y="322" width="42" height="42" rx="2" fill="#0C8AAE" opacity="0.95"/>
<text x="259" y="347" fill="#062430" font-size="10.5" font-weight="800" text-anchor="middle">72</text>
<rect x="282" y="322" width="42" height="42" rx="2" fill="#00D3F6" opacity="0.35"/>
<rect x="326" y="322" width="42" height="42" rx="2" fill="#1A365B" opacity="0.95"/>
<rect x="370" y="322" width="42" height="42" rx="2" fill="#1A3B60" opacity="0.95"/>
<rect x="414" y="322" width="42" height="42" rx="2" fill="#1B3459" opacity="0.95"/>
<rect x="458" y="322" width="42" height="42" rx="2" fill="#1A395D" opacity="0.95"/>
<rect x="502" y="322" width="42" height="42" rx="2" fill="#193C60" opacity="0.95"/>
<rect x="546" y="322" width="42" height="42" rx="2" fill="#193E63" opacity="0.95"/>
<text x="140" y="392" fill="#00D3F6" font-size="10.5" font-weight="800" text-anchor="end">CDK7</text>
<rect x="150" y="366" width="42" height="42" rx="2" fill="#18456A" opacity="0.95"/>
<rect x="194" y="366" width="42" height="42" rx="2" fill="#184569" opacity="0.95"/>
<rect x="238" y="366" width="42" height="42" rx="2" fill="#1B355A" opacity="0.95"/>
<rect x="282" y="366" width="42" height="42" rx="2" fill="#1A365B" opacity="0.95"/>
<rect x="326" y="366" width="42" height="42" rx="2" fill="#00D3F6" opacity="0.35"/>
<rect x="370" y="366" width="42" height="42" rx="2" fill="#193C61" opacity="0.95"/>
<rect x="414" y="366" width="42" height="42" rx="2" fill="#184166" opacity="0.95"/>
<rect x="458" y="366" width="42" height="42" rx="2" fill="#1B3358" opacity="0.95"/>
<rect x="502" y="366" width="42" height="42" rx="2" fill="#1B355A" opacity="0.95"/>
<rect x="546" y="366" width="42" height="42" rx="2" fill="#184367" opacity="0.95"/>
<text x="140" y="436" fill="#9AA7CD" font-size="10.5" font-weight="600" text-anchor="end">CDK8</text>
<rect x="150" y="410" width="42" height="42" rx="2" fill="#193E63" opacity="0.95"/>
<rect x="194" y="410" width="42" height="42" rx="2" fill="#184166" opacity="0.95"/>
<rect x="238" y="410" width="42" height="42" rx="2" fill="#194065" opacity="0.95"/>
<rect x="282" y="410" width="42" height="42" rx="2" fill="#1A3B60" opacity="0.95"/>
<rect x="326" y="410" width="42" height="42" rx="2" fill="#193C61" opacity="0.95"/>
<rect x="370" y="410" width="42" height="42" rx="2" fill="#00D3F6" opacity="0.35"/>
<rect x="414" y="410" width="42" height="42" rx="2" fill="#1B3459" opacity="0.95"/>
<rect x="458" y="410" width="42" height="42" rx="2" fill="#1B3257" opacity="0.95"/>
<rect x="502" y="410" width="42" height="42" rx="2" fill="#193B60" opacity="0.95"/>
<rect x="546" y="410" width="42" height="42" rx="2" fill="#07A8CC" opacity="0.95"/>
<text x="567" y="435" fill="#062430" font-size="10.5" font-weight="800" text-anchor="middle">84</text>
<text x="140" y="480" fill="#00D3F6" font-size="10.5" font-weight="800" text-anchor="end">CDK9</text>
<rect x="150" y="454" width="42" height="42" rx="2" fill="#184166" opacity="0.95"/>
<rect x="194" y="454" width="42" height="42" rx="2" fill="#193C61" opacity="0.95"/>
<rect x="238" y="454" width="42" height="42" rx="2" fill="#1A375B" opacity="0.95"/>
<rect x="282" y="454" width="42" height="42" rx="2" fill="#1B3459" opacity="0.95"/>
<rect x="326" y="454" width="42" height="42" rx="2" fill="#184166" opacity="0.95"/>
<rect x="370" y="454" width="42" height="42" rx="2" fill="#1B3459" opacity="0.95"/>
<rect x="414" y="454" width="42" height="42" rx="2" fill="#00D3F6" opacity="0.35"/>
<rect x="458" y="454" width="42" height="42" rx="2" fill="#18476B" opacity="0.95"/>
<rect x="502" y="454" width="42" height="42" rx="2" fill="#165175" opacity="0.95"/>
<rect x="546" y="454" width="42" height="42" rx="2" fill="#1B3055" opacity="0.95"/>
<text x="140" y="524" fill="#00D3F6" font-size="10.5" font-weight="800" text-anchor="end">CDK12</text>
<rect x="150" y="498" width="42" height="42" rx="2" fill="#194065" opacity="0.95"/>
<rect x="194" y="498" width="42" height="42" rx="2" fill="#17486D" opacity="0.95"/>
<rect x="238" y="498" width="42" height="42" rx="2" fill="#1B355A" opacity="0.95"/>
<rect x="282" y="498" width="42" height="42" rx="2" fill="#1A395D" opacity="0.95"/>
<rect x="326" y="498" width="42" height="42" rx="2" fill="#1B3358" opacity="0.95"/>
<rect x="370" y="498" width="42" height="42" rx="2" fill="#1B3257" opacity="0.95"/>
<rect x="414" y="498" width="42" height="42" rx="2" fill="#18476B" opacity="0.95"/>
<rect x="458" y="498" width="42" height="42" rx="2" fill="#00D3F6" opacity="0.35"/>
<rect x="502" y="498" width="42" height="42" rx="2" fill="#14597E" opacity="0.95"/>
<rect x="546" y="498" width="42" height="42" rx="2" fill="#1C2C51" opacity="0.95"/>
<text x="140" y="568" fill="#00D3F6" font-size="10.5" font-weight="800" text-anchor="end">CDK13</text>
<rect x="150" y="542" width="42" height="42" rx="2" fill="#193F64" opacity="0.95"/>
<rect x="194" y="542" width="42" height="42" rx="2" fill="#184569" opacity="0.95"/>
<rect x="238" y="542" width="42" height="42" rx="2" fill="#1B3459" opacity="0.95"/>
<rect x="282" y="542" width="42" height="42" rx="2" fill="#193C60" opacity="0.95"/>
<rect x="326" y="542" width="42" height="42" rx="2" fill="#1B355A" opacity="0.95"/>
<rect x="370" y="542" width="42" height="42" rx="2" fill="#193B60" opacity="0.95"/>
<rect x="414" y="542" width="42" height="42" rx="2" fill="#165175" opacity="0.95"/>
<rect x="458" y="542" width="42" height="42" rx="2" fill="#14597E" opacity="0.95"/>
<rect x="502" y="542" width="42" height="42" rx="2" fill="#00D3F6" opacity="0.35"/>
<rect x="546" y="542" width="42" height="42" rx="2" fill="#1A375C" opacity="0.95"/>
<text x="140" y="612" fill="#9AA7CD" font-size="10.5" font-weight="600" text-anchor="end">CDK19</text>
<rect x="150" y="586" width="42" height="42" rx="2" fill="#193F64" opacity="0.95"/>
<rect x="194" y="586" width="42" height="42" rx="2" fill="#18466B" opacity="0.95"/>
<rect x="238" y="586" width="42" height="42" rx="2" fill="#184468" opacity="0.95"/>
<rect x="282" y="586" width="42" height="42" rx="2" fill="#193E63" opacity="0.95"/>
<rect x="326" y="586" width="42" height="42" rx="2" fill="#184367" opacity="0.95"/>
<rect x="370" y="586" width="42" height="42" rx="2" fill="#07A8CC" opacity="0.95"/>
<text x="391" y="611" fill="#062430" font-size="10.5" font-weight="800" text-anchor="middle">84</text>
<rect x="414" y="586" width="42" height="42" rx="2" fill="#1B3055" opacity="0.95"/>
<rect x="458" y="586" width="42" height="42" rx="2" fill="#1C2C51" opacity="0.95"/>
<rect x="502" y="586" width="42" height="42" rx="2" fill="#1A375C" opacity="0.95"/>
<rect x="546" y="586" width="42" height="42" rx="2" fill="#00D3F6" opacity="0.35"/>
<rect x="413" y="365" width="44" height="44" rx="3" fill="none" stroke="#C79A4D" stroke-width="1.6" opacity=".8"/>
<rect x="457" y="365" width="44" height="44" rx="3" fill="none" stroke="#C79A4D" stroke-width="1.6" opacity=".8"/>
<rect x="501" y="365" width="44" height="44" rx="3" fill="none" stroke="#C79A4D" stroke-width="1.6" opacity=".8"/>
<rect x="325" y="453" width="44" height="44" rx="3" fill="none" stroke="#C79A4D" stroke-width="1.6" opacity=".8"/>
<rect x="457" y="453" width="44" height="44" rx="3" fill="none" stroke="#C79A4D" stroke-width="1.6" opacity=".8"/>
<rect x="501" y="453" width="44" height="44" rx="3" fill="none" stroke="#C79A4D" stroke-width="1.6" opacity=".8"/>
<rect x="325" y="497" width="44" height="44" rx="3" fill="none" stroke="#C79A4D" stroke-width="1.6" opacity=".8"/>
<rect x="413" y="497" width="44" height="44" rx="3" fill="none" stroke="#C79A4D" stroke-width="1.6" opacity=".8"/>
<rect x="501" y="497" width="44" height="44" rx="3" fill="none" stroke="#C79A4D" stroke-width="1.6" opacity=".8"/>
<rect x="325" y="541" width="44" height="44" rx="3" fill="none" stroke="#C79A4D" stroke-width="1.6" opacity=".8"/>
<rect x="413" y="541" width="44" height="44" rx="3" fill="none" stroke="#C79A4D" stroke-width="1.6" opacity=".8"/>
<rect x="457" y="541" width="44" height="44" rx="3" fill="none" stroke="#C79A4D" stroke-width="1.6" opacity=".8"/>
<text x="150" y="660" fill="#C79A4D" font-size="12">gold: our four targets</text>
<text x="660" y="150" fill="#9AA7CD" font-size="11.5" font-weight="700" letter-spacing="1.5">CDK9 AGAINST EACH COUNTER-TARGET</text>
<text x="660" y="194" fill="#EEF1FB" font-size="13.5" font-weight="700">CDK7</text>
<text x="740" y="217" fill="#9AA7CD" font-size="11" text-anchor="end">region</text>
<rect x="750" y="208" width="380" height="13" rx="3" fill="#1D2A4F"/>
<rect x="750" y="208" width="168" height="13" rx="3" fill="#4A5C8C" opacity=".95"/>
<text x="1140" y="219" fill="#EEF1FB" font-size="11.5" font-weight="700">44%</text>
<text x="740" y="239" fill="#9AA7CD" font-size="11" text-anchor="end">ATP site</text>
<rect x="750" y="230" width="380" height="13" rx="3" fill="#1D2A4F"/>
<rect x="750" y="230" width="274" height="13" rx="3" fill="#00D3F6" opacity=".95"/>
<text x="1140" y="241" fill="#EEF1FB" font-size="11.5" font-weight="700">72%</text>
<text x="660" y="268" fill="#EEF1FB" font-size="13.5" font-weight="700">CDK12</text>
<text x="740" y="291" fill="#9AA7CD" font-size="11" text-anchor="end">region</text>
<rect x="750" y="282" width="380" height="13" rx="3" fill="#1D2A4F"/>
<rect x="750" y="282" width="176" height="13" rx="3" fill="#4A5C8C" opacity=".95"/>
<text x="1140" y="293" fill="#EEF1FB" font-size="11.5" font-weight="700">46%</text>
<text x="740" y="313" fill="#9AA7CD" font-size="11" text-anchor="end">ATP site</text>
<rect x="750" y="304" width="380" height="13" rx="3" fill="#1D2A4F"/>
<rect x="750" y="304" width="274" height="13" rx="3" fill="#00D3F6" opacity=".95"/>
<text x="1140" y="315" fill="#EEF1FB" font-size="11.5" font-weight="700">72%</text>
<text x="660" y="342" fill="#EEF1FB" font-size="13.5" font-weight="700">CDK13</text>
<text x="740" y="365" fill="#9AA7CD" font-size="11" text-anchor="end">region</text>
<rect x="750" y="356" width="380" height="13" rx="3" fill="#1D2A4F"/>
<rect x="750" y="356" width="190" height="13" rx="3" fill="#4A5C8C" opacity=".95"/>
<text x="1140" y="367" fill="#EEF1FB" font-size="11.5" font-weight="700">50%</text>
<text x="740" y="387" fill="#9AA7CD" font-size="11" text-anchor="end">ATP site</text>
<rect x="750" y="378" width="380" height="13" rx="3" fill="#1D2A4F"/>
<rect x="750" y="378" width="253" height="13" rx="3" fill="#00D3F6" opacity=".95"/>
<text x="1140" y="389" fill="#EEF1FB" font-size="11.5" font-weight="700">67%</text>
<text x="660" y="422" fill="#EEF1FB" font-size="13.5" opacity=".9">The pocket is far more conserved than the domain around it.</text>
<text x="660" y="442" fill="#9AA7CD" font-size="13">Whole-region identity understates how hard this is.</text>
<text x="48" y="748" fill="#9AA7CD" font-size="11.5" font-weight="700" letter-spacing="1.5">THE 18 ATP-SITE POSITIONS</text>
<text x="183" y="802" fill="#9AA7CD" font-size="9" text-anchor="middle" opacity=".7">10</text>
<text x="183" y="786" fill="#9AA7CD" font-size="8.5" text-anchor="middle" opacity=".8" transform="rotate(-45 183 786)">β1</text>
<text x="229" y="802" fill="#9AA7CD" font-size="9" text-anchor="middle" opacity=".7">11</text>
<text x="229" y="786" fill="#9AA7CD" font-size="8.5" text-anchor="middle" opacity=".8" transform="rotate(-45 229 786)">G-loop</text>
<text x="275" y="802" fill="#9AA7CD" font-size="9" text-anchor="middle" opacity=".7">13</text>
<text x="275" y="786" fill="#9AA7CD" font-size="8.5" text-anchor="middle" opacity=".8" transform="rotate(-45 275 786)">G-loop</text>
<text x="321" y="802" fill="#9AA7CD" font-size="9" text-anchor="middle" opacity=".7">18</text>
<text x="321" y="786" fill="#9AA7CD" font-size="8.5" text-anchor="middle" opacity=".8" transform="rotate(-45 321 786)">β2</text>
<text x="367" y="802" fill="#9AA7CD" font-size="9" text-anchor="middle" opacity=".7">31</text>
<text x="367" y="786" fill="#9AA7CD" font-size="8.5" text-anchor="middle" opacity=".8" transform="rotate(-45 367 786)">β3</text>
<text x="413" y="802" fill="#9AA7CD" font-size="9" text-anchor="middle" opacity=".7">33</text>
<text x="413" y="786" fill="#9AA7CD" font-size="8.5" text-anchor="middle" opacity=".8" transform="rotate(-45 413 786)">β3 Lys</text>
<text x="459" y="802" fill="#9AA7CD" font-size="9" text-anchor="middle" opacity=".7">64</text>
<text x="459" y="786" fill="#9AA7CD" font-size="8.5" text-anchor="middle" opacity=".8" transform="rotate(-45 459 786)">αC-β4</text>
<text x="505" y="802" fill="#9AA7CD" font-size="9" text-anchor="middle" opacity=".7">80</text>
<text x="505" y="786" fill="#C79A4D" font-size="8.5" text-anchor="middle" opacity=".8" transform="rotate(-45 505 786)">gatekeeper</text>
<text x="551" y="802" fill="#9AA7CD" font-size="9" text-anchor="middle" opacity=".7">81</text>
<text x="551" y="786" fill="#C79A4D" font-size="8.5" text-anchor="middle" opacity=".8" transform="rotate(-45 551 786)">hinge</text>
<text x="597" y="802" fill="#9AA7CD" font-size="9" text-anchor="middle" opacity=".7">82</text>
<text x="597" y="786" fill="#C79A4D" font-size="8.5" text-anchor="middle" opacity=".8" transform="rotate(-45 597 786)">hinge</text>
<text x="643" y="802" fill="#9AA7CD" font-size="9" text-anchor="middle" opacity=".7">83</text>
<text x="643" y="786" fill="#C79A4D" font-size="8.5" text-anchor="middle" opacity=".8" transform="rotate(-45 643 786)">hinge</text>
<text x="689" y="802" fill="#9AA7CD" font-size="9" text-anchor="middle" opacity=".7">84</text>
<text x="689" y="786" fill="#C79A4D" font-size="8.5" text-anchor="middle" opacity=".8" transform="rotate(-45 689 786)">hinge</text>
<text x="735" y="802" fill="#9AA7CD" font-size="9" text-anchor="middle" opacity=".7">86</text>
<text x="781" y="802" fill="#9AA7CD" font-size="9" text-anchor="middle" opacity=".7">89</text>
<text x="827" y="802" fill="#9AA7CD" font-size="9" text-anchor="middle" opacity=".7">131</text>
<text x="873" y="802" fill="#9AA7CD" font-size="9" text-anchor="middle" opacity=".7">132</text>
<text x="873" y="786" fill="#9AA7CD" font-size="8.5" text-anchor="middle" opacity=".8" transform="rotate(-45 873 786)">cat. Asn</text>
<text x="919" y="802" fill="#9AA7CD" font-size="9" text-anchor="middle" opacity=".7">134</text>
<text x="965" y="802" fill="#9AA7CD" font-size="9" text-anchor="middle" opacity=".7">145</text>
<text x="965" y="786" fill="#9AA7CD" font-size="8.5" text-anchor="middle" opacity=".8" transform="rotate(-45 965 786)">DFG</text>
<text x="148" y="834" fill="#00D3F6" font-size="12" font-weight="800" text-anchor="end">CDK9</text>
<rect x="160" y="818" width="42" height="24" rx="3" fill="#00D3F6" opacity=".85"/>
<text x="181" y="835" fill="#062430" font-size="12.5" font-weight="600" text-anchor="middle">I</text>
<rect x="206" y="818" width="42" height="24" rx="3" fill="#00D3F6" opacity=".85"/>
<text x="227" y="835" fill="#062430" font-size="12.5" font-weight="600" text-anchor="middle">G</text>
<rect x="252" y="818" width="42" height="24" rx="3" fill="#00D3F6" opacity=".85"/>
<text x="273" y="835" fill="#062430" font-size="12.5" font-weight="600" text-anchor="middle">G</text>
<rect x="298" y="818" width="42" height="24" rx="3" fill="#00D3F6" opacity=".85"/>
<text x="319" y="835" fill="#062430" font-size="12.5" font-weight="600" text-anchor="middle">V</text>
<rect x="344" y="818" width="42" height="24" rx="3" fill="#00D3F6" opacity=".85"/>
<text x="365" y="835" fill="#062430" font-size="12.5" font-weight="600" text-anchor="middle">A</text>
<rect x="390" y="818" width="42" height="24" rx="3" fill="#00D3F6" opacity=".85"/>
<text x="411" y="835" fill="#062430" font-size="12.5" font-weight="600" text-anchor="middle">K</text>
<rect x="436" y="818" width="42" height="24" rx="3" fill="#00D3F6" opacity=".85"/>
<text x="457" y="835" fill="#062430" font-size="12.5" font-weight="600" text-anchor="middle">V</text>
<rect x="482" y="818" width="42" height="24" rx="3" fill="#00D3F6" opacity=".85"/>
<text x="503" y="835" fill="#062430" font-size="12.5" font-weight="600" text-anchor="middle">F</text>
<rect x="528" y="818" width="42" height="24" rx="3" fill="#00D3F6" opacity=".85"/>
<text x="549" y="835" fill="#062430" font-size="12.5" font-weight="600" text-anchor="middle">D</text>
<rect x="574" y="818" width="42" height="24" rx="3" fill="#00D3F6" opacity=".85"/>
<text x="595" y="835" fill="#062430" font-size="12.5" font-weight="600" text-anchor="middle">F</text>
<rect x="620" y="818" width="42" height="24" rx="3" fill="#00D3F6" opacity=".85"/>
<text x="641" y="835" fill="#062430" font-size="12.5" font-weight="600" text-anchor="middle">C</text>
<rect x="666" y="818" width="42" height="24" rx="3" fill="#00D3F6" opacity=".85"/>
<text x="687" y="835" fill="#062430" font-size="12.5" font-weight="600" text-anchor="middle">E</text>
<rect x="712" y="818" width="42" height="24" rx="3" fill="#00D3F6" opacity=".85"/>
<text x="733" y="835" fill="#062430" font-size="12.5" font-weight="600" text-anchor="middle">D</text>
<rect x="758" y="818" width="42" height="24" rx="3" fill="#00D3F6" opacity=".85"/>
<text x="779" y="835" fill="#062430" font-size="12.5" font-weight="600" text-anchor="middle">G</text>
<rect x="804" y="818" width="42" height="24" rx="3" fill="#00D3F6" opacity=".85"/>
<text x="825" y="835" fill="#062430" font-size="12.5" font-weight="600" text-anchor="middle">A</text>
<rect x="850" y="818" width="42" height="24" rx="3" fill="#00D3F6" opacity=".85"/>
<text x="871" y="835" fill="#062430" font-size="12.5" font-weight="600" text-anchor="middle">N</text>
<rect x="896" y="818" width="42" height="24" rx="3" fill="#00D3F6" opacity=".85"/>
<text x="917" y="835" fill="#062430" font-size="12.5" font-weight="600" text-anchor="middle">L</text>
<rect x="942" y="818" width="42" height="24" rx="3" fill="#00D3F6" opacity=".85"/>
<text x="963" y="835" fill="#062430" font-size="12.5" font-weight="600" text-anchor="middle">D</text>
<text x="148" y="864" fill="#EEF1FB" font-size="12" font-weight="600" text-anchor="end">CDK7</text>
<rect x="160" y="848" width="42" height="24" rx="3" fill="#8A5A2B" opacity=".95"/>
<text x="181" y="865" fill="#EEF1FB" font-size="12.5" font-weight="800" text-anchor="middle">L</text>
<rect x="206" y="848" width="42" height="24" rx="3" fill="#1D2A4F" opacity=".5"/>
<text x="227" y="865" fill="#EEF1FB" font-size="12.5" font-weight="600" text-anchor="middle">G</text>
<rect x="252" y="848" width="42" height="24" rx="3" fill="#1D2A4F" opacity=".5"/>
<text x="273" y="865" fill="#EEF1FB" font-size="12.5" font-weight="600" text-anchor="middle">G</text>
<rect x="298" y="848" width="42" height="24" rx="3" fill="#1D2A4F" opacity=".5"/>
<text x="319" y="865" fill="#EEF1FB" font-size="12.5" font-weight="600" text-anchor="middle">V</text>
<rect x="344" y="848" width="42" height="24" rx="3" fill="#1D2A4F" opacity=".5"/>
<text x="365" y="865" fill="#EEF1FB" font-size="12.5" font-weight="600" text-anchor="middle">A</text>
<rect x="390" y="848" width="42" height="24" rx="3" fill="#1D2A4F" opacity=".5"/>
<text x="411" y="865" fill="#EEF1FB" font-size="12.5" font-weight="600" text-anchor="middle">K</text>
<rect x="436" y="848" width="42" height="24" rx="3" fill="#8A5A2B" opacity=".95"/>
<text x="457" y="865" fill="#EEF1FB" font-size="12.5" font-weight="800" text-anchor="middle">I</text>
<rect x="482" y="848" width="42" height="24" rx="3" fill="#1D2A4F" opacity=".5"/>
<text x="503" y="865" fill="#EEF1FB" font-size="12.5" font-weight="600" text-anchor="middle">F</text>
<rect x="528" y="848" width="42" height="24" rx="3" fill="#1D2A4F" opacity=".5"/>
<text x="549" y="865" fill="#EEF1FB" font-size="12.5" font-weight="600" text-anchor="middle">D</text>
<rect x="574" y="848" width="42" height="24" rx="3" fill="#1D2A4F" opacity=".5"/>
<text x="595" y="865" fill="#EEF1FB" font-size="12.5" font-weight="600" text-anchor="middle">F</text>
<rect x="620" y="848" width="42" height="24" rx="3" fill="#8A5A2B" opacity=".95"/>
<text x="641" y="865" fill="#EEF1FB" font-size="12.5" font-weight="800" text-anchor="middle">M</text>
<rect x="666" y="848" width="42" height="24" rx="3" fill="#1D2A4F" opacity=".5"/>
<text x="687" y="865" fill="#EEF1FB" font-size="12.5" font-weight="600" text-anchor="middle">E</text>
<rect x="712" y="848" width="42" height="24" rx="3" fill="#1D2A4F" opacity=".5"/>
<text x="733" y="865" fill="#EEF1FB" font-size="12.5" font-weight="600" text-anchor="middle">D</text>
<rect x="758" y="848" width="42" height="24" rx="3" fill="#8A5A2B" opacity=".95"/>
<text x="779" y="865" fill="#EEF1FB" font-size="12.5" font-weight="800" text-anchor="middle">V</text>
<rect x="804" y="848" width="42" height="24" rx="3" fill="#8A5A2B" opacity=".95"/>
<text x="825" y="865" fill="#EEF1FB" font-size="12.5" font-weight="800" text-anchor="middle">N</text>
<rect x="850" y="848" width="42" height="24" rx="3" fill="#1D2A4F" opacity=".5"/>
<text x="871" y="865" fill="#EEF1FB" font-size="12.5" font-weight="600" text-anchor="middle">N</text>
<rect x="896" y="848" width="42" height="24" rx="3" fill="#1D2A4F" opacity=".5"/>
<text x="917" y="865" fill="#EEF1FB" font-size="12.5" font-weight="600" text-anchor="middle">L</text>
<rect x="942" y="848" width="42" height="24" rx="3" fill="#1D2A4F" opacity=".5"/>
<text x="963" y="865" fill="#EEF1FB" font-size="12.5" font-weight="600" text-anchor="middle">D</text>
<text x="148" y="894" fill="#EEF1FB" font-size="12" font-weight="600" text-anchor="end">CDK12</text>
<rect x="160" y="878" width="42" height="24" rx="3" fill="#1D2A4F" opacity=".5"/>
<text x="181" y="895" fill="#EEF1FB" font-size="12.5" font-weight="600" text-anchor="middle">I</text>
<rect x="206" y="878" width="42" height="24" rx="3" fill="#1D2A4F" opacity=".5"/>
<text x="227" y="895" fill="#EEF1FB" font-size="12.5" font-weight="600" text-anchor="middle">G</text>
<rect x="252" y="878" width="42" height="24" rx="3" fill="#1D2A4F" opacity=".5"/>
<text x="273" y="895" fill="#EEF1FB" font-size="12.5" font-weight="600" text-anchor="middle">G</text>
<rect x="298" y="878" width="42" height="24" rx="3" fill="#1D2A4F" opacity=".5"/>
<text x="319" y="895" fill="#EEF1FB" font-size="12.5" font-weight="600" text-anchor="middle">V</text>
<rect x="344" y="878" width="42" height="24" rx="3" fill="#1D2A4F" opacity=".5"/>
<text x="365" y="895" fill="#EEF1FB" font-size="12.5" font-weight="600" text-anchor="middle">A</text>
<rect x="390" y="878" width="42" height="24" rx="3" fill="#1D2A4F" opacity=".5"/>
<text x="411" y="895" fill="#EEF1FB" font-size="12.5" font-weight="600" text-anchor="middle">K</text>
<rect x="436" y="878" width="42" height="24" rx="3" fill="#1D2A4F" opacity=".5"/>
<text x="457" y="895" fill="#EEF1FB" font-size="12.5" font-weight="600" text-anchor="middle">V</text>
<rect x="482" y="878" width="42" height="24" rx="3" fill="#1D2A4F" opacity=".5"/>
<text x="503" y="895" fill="#EEF1FB" font-size="12.5" font-weight="600" text-anchor="middle">F</text>
<rect x="528" y="878" width="42" height="24" rx="3" fill="#8A5A2B" opacity=".95"/>
<text x="549" y="895" fill="#EEF1FB" font-size="12.5" font-weight="800" text-anchor="middle">E</text>
<rect x="574" y="878" width="42" height="24" rx="3" fill="#8A5A2B" opacity=".95"/>
<text x="595" y="895" fill="#EEF1FB" font-size="12.5" font-weight="800" text-anchor="middle">Y</text>
<rect x="620" y="878" width="42" height="24" rx="3" fill="#8A5A2B" opacity=".95"/>
<text x="641" y="895" fill="#EEF1FB" font-size="12.5" font-weight="800" text-anchor="middle">M</text>
<rect x="666" y="878" width="42" height="24" rx="3" fill="#8A5A2B" opacity=".95"/>
<text x="687" y="895" fill="#EEF1FB" font-size="12.5" font-weight="800" text-anchor="middle">D</text>
<rect x="712" y="878" width="42" height="24" rx="3" fill="#1D2A4F" opacity=".5"/>
<text x="733" y="895" fill="#EEF1FB" font-size="12.5" font-weight="600" text-anchor="middle">D</text>
<rect x="758" y="878" width="42" height="24" rx="3" fill="#1D2A4F" opacity=".5"/>
<text x="779" y="895" fill="#EEF1FB" font-size="12.5" font-weight="600" text-anchor="middle">G</text>
<rect x="804" y="878" width="42" height="24" rx="3" fill="#8A5A2B" opacity=".95"/>
<text x="825" y="895" fill="#EEF1FB" font-size="12.5" font-weight="800" text-anchor="middle">S</text>
<rect x="850" y="878" width="42" height="24" rx="3" fill="#1D2A4F" opacity=".5"/>
<text x="871" y="895" fill="#EEF1FB" font-size="12.5" font-weight="600" text-anchor="middle">N</text>
<rect x="896" y="878" width="42" height="24" rx="3" fill="#1D2A4F" opacity=".5"/>
<text x="917" y="895" fill="#EEF1FB" font-size="12.5" font-weight="600" text-anchor="middle">L</text>
<rect x="942" y="878" width="42" height="24" rx="3" fill="#1D2A4F" opacity=".5"/>
<text x="963" y="895" fill="#EEF1FB" font-size="12.5" font-weight="600" text-anchor="middle">D</text>
<text x="148" y="924" fill="#EEF1FB" font-size="12" font-weight="600" text-anchor="end">CDK13</text>
<rect x="160" y="908" width="42" height="24" rx="3" fill="#1D2A4F" opacity=".5"/>
<text x="181" y="925" fill="#EEF1FB" font-size="12.5" font-weight="600" text-anchor="middle">I</text>
<rect x="206" y="908" width="42" height="24" rx="3" fill="#1D2A4F" opacity=".5"/>
<text x="227" y="925" fill="#EEF1FB" font-size="12.5" font-weight="600" text-anchor="middle">G</text>
<rect x="252" y="908" width="42" height="24" rx="3" fill="#1D2A4F" opacity=".5"/>
<text x="273" y="925" fill="#EEF1FB" font-size="12.5" font-weight="600" text-anchor="middle">G</text>
<rect x="298" y="908" width="42" height="24" rx="3" fill="#1D2A4F" opacity=".5"/>
<text x="319" y="925" fill="#EEF1FB" font-size="12.5" font-weight="600" text-anchor="middle">V</text>
<rect x="344" y="908" width="42" height="24" rx="3" fill="#1D2A4F" opacity=".5"/>
<text x="365" y="925" fill="#EEF1FB" font-size="12.5" font-weight="600" text-anchor="middle">A</text>
<rect x="390" y="908" width="42" height="24" rx="3" fill="#1D2A4F" opacity=".5"/>
<text x="411" y="925" fill="#EEF1FB" font-size="12.5" font-weight="600" text-anchor="middle">K</text>
<rect x="436" y="908" width="42" height="24" rx="3" fill="#8A5A2B" opacity=".95"/>
<text x="457" y="925" fill="#EEF1FB" font-size="12.5" font-weight="800" text-anchor="middle">I</text>
<rect x="482" y="908" width="42" height="24" rx="3" fill="#1D2A4F" opacity=".5"/>
<text x="503" y="925" fill="#EEF1FB" font-size="12.5" font-weight="600" text-anchor="middle">F</text>
<rect x="528" y="908" width="42" height="24" rx="3" fill="#8A5A2B" opacity=".95"/>
<text x="549" y="925" fill="#EEF1FB" font-size="12.5" font-weight="800" text-anchor="middle">E</text>
<rect x="574" y="908" width="42" height="24" rx="3" fill="#8A5A2B" opacity=".95"/>
<text x="595" y="925" fill="#EEF1FB" font-size="12.5" font-weight="800" text-anchor="middle">Y</text>
<rect x="620" y="908" width="42" height="24" rx="3" fill="#8A5A2B" opacity=".95"/>
<text x="641" y="925" fill="#EEF1FB" font-size="12.5" font-weight="800" text-anchor="middle">M</text>
<rect x="666" y="908" width="42" height="24" rx="3" fill="#8A5A2B" opacity=".95"/>
<text x="687" y="925" fill="#EEF1FB" font-size="12.5" font-weight="800" text-anchor="middle">D</text>
<rect x="712" y="908" width="42" height="24" rx="3" fill="#1D2A4F" opacity=".5"/>
<text x="733" y="925" fill="#EEF1FB" font-size="12.5" font-weight="600" text-anchor="middle">D</text>
<rect x="758" y="908" width="42" height="24" rx="3" fill="#1D2A4F" opacity=".5"/>
<text x="779" y="925" fill="#EEF1FB" font-size="12.5" font-weight="600" text-anchor="middle">G</text>
<rect x="804" y="908" width="42" height="24" rx="3" fill="#8A5A2B" opacity=".95"/>
<text x="825" y="925" fill="#EEF1FB" font-size="12.5" font-weight="800" text-anchor="middle">S</text>
<rect x="850" y="908" width="42" height="24" rx="3" fill="#1D2A4F" opacity=".5"/>
<text x="871" y="925" fill="#EEF1FB" font-size="12.5" font-weight="600" text-anchor="middle">N</text>
<rect x="896" y="908" width="42" height="24" rx="3" fill="#1D2A4F" opacity=".5"/>
<text x="917" y="925" fill="#EEF1FB" font-size="12.5" font-weight="600" text-anchor="middle">L</text>
<rect x="942" y="908" width="42" height="24" rx="3" fill="#1D2A4F" opacity=".5"/>
<text x="963" y="925" fill="#EEF1FB" font-size="12.5" font-weight="600" text-anchor="middle">D</text>
<text x="160" y="960" fill="#9AA7CD" font-size="12">orange: differs from CDK9. The hinge is where CDK12 and CDK13 diverge; CDK7 matches CDK9 there and differs elsewhere.</text>
<rect x="660" y="472" width="622" height="86" rx="6" fill="#1D2A4F" opacity=".5"/>
<text x="680" y="500" fill="#C79A4D" font-size="13.5" font-weight="800">A harder pair sits in the same family</text>
<text x="680" y="522" fill="#EEF1FB" font-size="13">CDK8 and CDK19 are identical at all 18 ATP-site positions (100%).</text>
<text x="680" y="542" fill="#9AA7CD" font-size="12.5">CDK4 / CDK6 sit at 94%. Natural scale-up targets once the chain holds on ours.</text>
<text x="48" y="1014" fill="#9AA7CD" font-size="11" opacity=".65">UniProt sequences. ATP-site positions mapped from CDK2 by sequence alignment, not structural superposition, so treat as indicative. tools/fetch_protein_space.py → data/protein-space.json</text>
</svg>